<?xml version="1.0" encoding="utf-8"?>
<!-- Generator: Adobe Illustrator 23.0.2, SVG Export Plug-In . SVG Version: 6.00 Build 0)  -->
<svg version="1.1" id="Layer_1" xmlns="http://www.w3.org/2000/svg" xmlns:xlink="http://www.w3.org/1999/xlink" x="0px" y="0px"
	 viewBox="0 0 294.7 128.1" style="enable-background:new 0 0 294.7 128.1;" xml:space="preserve">
<style type="text/css">
	.st0{fill:#FFFFFF;}
	.st1{fill:#FBB03B;}
</style>
<g>
	<polygon class="st0" points="27.6,54.4 46,82.8 79,75.6 102,38.7 73.9,9.5 27.9,11.4 	"/>
	<path class="st1" d="M73.9,9.5l28,29.2L79,75.6l-33,7.2L27.6,54.4l0.3-43L73.9,9.5 M73.9,2.5c-0.1,0-0.2,0-0.3,0L27.6,4.4
		c-3.7,0.1-6.7,3.2-6.7,6.9l-0.3,43c0,1.4,0.4,2.7,1.1,3.9l18.4,28.4c1.3,2,3.5,3.2,5.9,3.2c0.5,0,1-0.1,1.5-0.2l33-7.2
		c1.8-0.4,3.5-1.5,4.4-3.1l22.9-36.9c1.7-2.7,1.3-6.2-0.9-8.5L79,4.7C77.7,3.3,75.8,2.5,73.9,2.5L73.9,2.5z"/>
</g>
<g>
	<g>
		<path class="st1" d="M134,57.8v11.6c1-1.7,2.8-3.3,6.1-3.3c3.1,0,6.6,1.7,6.6,7.5V86h-3.4V74.1c0-3.3-1.4-5.2-4.2-5.2
			c-3.5,0-5.1,2.3-5.1,6.4V86h-3.4V57.8H134z"/>
		<path class="st1" d="M151.5,76.9c0,4,2,6.8,5.3,6.8c3.1,0,4.1-1.6,4.7-3h3.4c-0.8,2.5-2.9,5.8-8.2,5.8c-6.1,0-8.6-5-8.6-10
			c0-5.8,2.9-10.4,8.8-10.4c6.3,0,8.3,5,8.3,9.2c0,0.6,0,1.1-0.1,1.6H151.5z M161.8,74.5c0-3.2-1.7-5.8-5-5.8
			c-3.4,0-4.9,2.4-5.3,5.8H161.8z"/>
		<path class="st1" d="M181.2,81.8c0,1.8,0.2,3.7,0.3,4.2h-3.2c-0.2-0.4-0.3-1.4-0.3-2.5c-0.7,1.3-2.2,3-6,3c-4.6,0-6.6-3-6.6-6
			c0-4.3,3.4-6.3,9.2-6.3c1.4,0,2.6,0,3.3,0v-1.7c0-1.7-0.5-3.8-4.2-3.8c-3.3,0-3.8,1.6-4.2,3.1h-3.3c0.3-2.7,1.9-5.8,7.5-5.8
			c4.8,0,7.4,2,7.4,6.4V81.8z M177.9,76.5c-0.6,0-2.1,0-3.2,0c-3.9,0-6,1.1-6,3.8c0,2,1.4,3.5,3.8,3.5c4.7,0,5.3-3.2,5.3-6.7V76.5z"
			/>
		<path class="st1" d="M200.3,57.8v22.7c0,1.8,0,3.6,0,5.5h-3.2c-0.1-0.5-0.2-2-0.2-2.8c-1,2-2.9,3.2-6.1,3.2c-5,0-8.1-4.1-8.1-10
			c0-6,3.3-10.4,8.7-10.4c3.4,0,5,1.4,5.5,2.5V57.8H200.3z M186.2,76.4c0,4.7,2.2,7.3,5.3,7.3c4.6,0,5.6-3.4,5.6-7.6
			c0-4.3-0.9-7.1-5.3-7.1C188.3,68.9,186.2,71.6,186.2,76.4z"/>
		<path class="st1" d="M204.8,80.4c0.6,2.1,2.1,3.4,4.8,3.4c2.9,0,4-1.2,4-3c0-1.8-0.9-2.7-4.6-3.6c-5.6-1.4-6.7-3.1-6.7-5.7
			c0-2.8,2-5.5,7-5.5c5,0,7.1,2.9,7.3,5.6h-3.3c-0.3-1.3-1.2-3-4.2-3c-2.7,0-3.5,1.3-3.5,2.6c0,1.5,0.8,2.2,4.4,3
			c5.9,1.4,7.1,3.4,7.1,6.3c0,3.4-2.7,5.9-7.6,5.9c-5,0-7.5-2.5-8-6H204.8z"/>
		<path class="st1" d="M215.9,66.5h3.4v-5.7h3.4v5.7h4.3v2.7h-4.3v11.4c0,1.9,0.5,2.9,2.2,2.9c0.5,0,1.2,0,1.7-0.2v2.5
			c-0.8,0.3-2,0.4-2.9,0.4c-3,0-4.4-1.6-4.4-4.8V69.3h-3.4V66.5z"/>
		<path class="st1" d="M227.8,71.8c0-2.7,0-4.3,0-5.3h3.3c0.1,0.5,0.1,2.1,0.1,4c1-2.6,3.3-4.3,6.6-4.4v3.4c-4,0.1-6.6,2.2-6.6,7.1
			V86h-3.4V71.8z"/>
		<path class="st1" d="M255.2,76.2c0,5.6-3.2,10.2-9.2,10.2c-5.6,0-9-4.3-9-10.2c0-5.8,3.3-10.2,9.2-10.2
			C251.7,66.1,255.2,70.1,255.2,76.2z M240.5,76.3c0,4.3,2.1,7.4,5.6,7.4c3.6,0,5.6-3,5.6-7.4c0-4.4-2-7.4-5.6-7.4
			C242.4,68.9,240.5,71.8,240.5,76.3z"/>
		<path class="st1" d="M256.7,71.4c0-1.7,0-3.4,0-4.9h3.3c0.1,0.6,0.1,2.6,0.1,3.2c0.8-1.7,2.4-3.7,6.1-3.7c3.7,0,6.5,2.2,6.5,7.4
			V86h-3.4V73.9c0-2.9-1.1-4.9-4.1-4.9c-3.7,0-5.2,2.8-5.2,6.7V86h-3.4V71.4z"/>
		<path class="st1" d="M291.6,84.3c0,6.2-2.6,9.8-8.9,9.8c-5.9,0-7.7-3.3-8.1-6h3.4c0.6,2.1,2.3,3.3,4.8,3.3c4.4,0,5.5-2.8,5.5-7.3
			v-1.6c-1,2.2-2.8,3.4-6.1,3.4c-4.8,0-8.1-3.9-8.1-9.6c0-6.4,3.7-10.2,8.4-10.2c3.7,0,5.3,1.7,5.7,3c0-0.9,0.1-2.2,0.2-2.6h3.2
			c0,1.1-0.1,3.8-0.1,5.6V84.3z M277.7,76.1c0,4.1,2.1,6.9,5.3,6.9c4.2,0,5.4-2.8,5.4-7.2c0-4.4-1.2-7-5.3-7
			C279.5,68.9,277.7,71.9,277.7,76.1z"/>
	</g>
</g>
<g>
	<g>
		<path class="st0" d="M11.4,113.4c0.9,3.9,3.7,5.7,8.2,5.7c4.5,0,6.5-1.8,6.5-4.6c0-3.2-1.9-4.6-8.6-6.1
			c-10.7-2.5-13.3-6.4-13.3-11.7c0-6.8,5.1-11.5,14.4-11.5c10.4,0,14.5,5.6,15.1,11.3h-8.5c-0.4-2.4-1.7-5-6.8-5
			c-3.4,0-5.5,1.4-5.5,4.2c0,2.7,1.7,3.8,8,5.3c11.4,2.7,13.9,6.9,13.9,12.4c0,7.1-5.4,12.1-15.8,12.1c-9.9,0-15.2-4.9-16.1-12H11.4
			z"/>
		<path class="st0" d="M73.5,105.2c0,10.9-6.5,20.3-19.3,20.3c-12.3,0-18.7-8.9-18.7-20.1c0-11.4,7.1-20.1,19.3-20.1
			C66.3,85.2,73.5,93.2,73.5,105.2z M44.3,105.1c0,7.6,3.4,13.4,10.3,13.4c7.5,0,10.2-6.3,10.2-13.3c0-7.4-3-13.2-10.3-13.2
			C47.4,92,44.3,97.5,44.3,105.1z"/>
		<path class="st0" d="M76.7,85.7h8.5v32.2h19.5l-1,6.9h-27V85.7z"/>
		<path class="st0" d="M113.6,85.7V109c0,7.5,3.9,9.7,8.1,9.7c4.8,0,7.9-2.6,7.9-9.7V85.7h8.5v22.9c0,13.4-7.8,16.8-16.5,16.8
			c-8.8,0-16.4-3.6-16.4-16.6V85.7H113.6z"/>
		<path class="st0" d="M150.4,92.7h-11.9v-6.9h32.2v6.9h-11.9v32.2h-8.5V92.7z"/>
		<path class="st0" d="M180.2,85.7v39.1h-8.5V85.7H180.2z"/>
		<path class="st0" d="M221.3,105.2c0,10.9-6.5,20.3-19.3,20.3c-12.3,0-18.7-8.9-18.7-20.1c0-11.4,7.1-20.1,19.3-20.1
			C214,85.2,221.3,93.2,221.3,105.2z M192.1,105.1c0,7.6,3.4,13.4,10.3,13.4c7.5,0,10.2-6.3,10.2-13.3c0-7.4-3-13.2-10.3-13.2
			C195.1,92,192.1,97.5,192.1,105.1z"/>
		<path class="st0" d="M224.4,124.9V85.7h10.5c4.9,8.8,13.9,24.6,15.7,28.9h0.1c-0.4-4.1-0.4-10.9-0.4-17.3V85.7h7.7v39.1H248
			c-4.2-7.6-14.2-25.9-16.2-30.4h-0.1c0.3,3.4,0.4,11.5,0.4,18.5v11.9H224.4z"/>
		<path class="st0" d="M268.8,113.4c0.9,3.9,3.7,5.7,8.2,5.7c4.5,0,6.5-1.8,6.5-4.6c0-3.2-1.9-4.6-8.6-6.1
			c-10.7-2.5-13.3-6.4-13.3-11.7c0-6.8,5.1-11.5,14.4-11.5c10.4,0,14.5,5.6,15.1,11.3h-8.5c-0.4-2.4-1.7-5-6.8-5
			c-3.4,0-5.5,1.4-5.5,4.2c0,2.7,1.7,3.8,8,5.3c11.4,2.7,13.9,6.9,13.9,12.4c0,7.1-5.4,12.1-15.8,12.1c-9.9,0-15.2-4.9-16.1-12
			H268.8z"/>
	</g>
</g>
</svg>
